<svg width="17" height="17" viewBox="0 0 17 17" fill="none" xmlns="http://www.w3.org/2000/svg">
<path d="M6.83962 13.5757C8.31015 13.5757 9.68323 13.099 10.7994 12.3046L14.9984 16.4885C15.1933 16.6827 15.4502 16.7798 15.7159 16.7798C16.2918 16.7798 16.7081 16.3384 16.7081 15.7735C16.7081 15.5087 16.6195 15.2616 16.4246 15.0674L12.2522 10.9011C13.1292 9.75364 13.6519 8.33252 13.6519 6.78783C13.6519 3.05408 10.5868 0 6.83962 0C3.08356 0 0.0273438 3.05408 0.0273438 6.78783C0.0273438 10.5216 3.08356 13.5757 6.83962 13.5757ZM6.83962 12.1104C3.90742 12.1104 1.49787 9.70068 1.49787 6.78783C1.49787 3.87497 3.90742 1.46525 6.83962 1.46525C9.76296 1.46525 12.1814 3.87497 12.1814 6.78783C12.1814 9.70068 9.76296 12.1104 6.83962 12.1104Z" fill="#96A7AF"/>
</svg>
